<svg width="65" height="65" viewBox="0 0 65 65" fill="none" xmlns="http://www.w3.org/2000/svg">
<rect width="65" height="65" rx="32.5" fill="#82CFEB"/>
<path d="M32.5 24.1125C34.095 24.1125 35.3875 25.405 35.3875 27C35.3875 28.595 34.095 29.8875 32.5 29.8875C30.905 29.8875 29.6125 28.595 29.6125 27C29.6125 25.405 30.905 24.1125 32.5 24.1125ZM32.5 36.4875C36.5838 36.4875 40.8875 38.495 40.8875 39.375V40.8875H24.1125V39.375C24.1125 38.495 28.4162 36.4875 32.5 36.4875ZM32.5 21.5C29.4612 21.5 27 23.9612 27 27C27 30.0388 29.4612 32.5 32.5 32.5C35.5388 32.5 38 30.0388 38 27C38 23.9612 35.5388 21.5 32.5 21.5ZM32.5 33.875C28.8287 33.875 21.5 35.7175 21.5 39.375V43.5H43.5V39.375C43.5 35.7175 36.1713 33.875 32.5 33.875Z" fill="black"/>
</svg>
